<svg xmlns="http://www.w3.org/2000/svg" style="display: none;">
    <symbol id="arrow-top" width="16" height="18" viewBox="0 0 16 18">
        <path d="M8.70711 0.565443C8.31658 0.174919 7.68342 0.174919 7.29289 0.565443L0.928933 6.9294C0.538408 7.31993 0.538408 7.95309 0.928933 8.34362C1.31946 8.73414 1.95262 8.73414 2.34315 8.34362L8 2.68676L13.6569 8.34362C14.0474 8.73414 14.6805 8.73414 15.0711 8.34362C15.4616 7.95309 15.4616 7.31993 15.0711 6.9294L8.70711 0.565443ZM9 17.1816L9 1.27255L7 1.27255L7 17.1816L9 17.1816Z"/>
    </symbol>
    <symbol id="tg-icon" width="22" height="19" viewBox="0 0 22 19">
        <path fill-rule="evenodd" clip-rule="evenodd" d="M8.6736 12.0686L8.67319 12.0683L8.67365 12.0678L8.67366 12.0677L8.67373 12.0678L17.9473 3.69909C18.3543 3.33786 17.8584 3.16171 17.3181 3.48936L5.87259 10.7102L0.928757 9.16714C-0.138893 8.84024 -0.14656 8.10659 1.16846 7.57914L20.4335 0.150643C21.3133 -0.248824 22.1626 0.361976 21.8267 1.70868L18.5459 17.1692C18.3168 18.2678 17.6529 18.5306 16.7332 18.0231L11.7355 14.3307L9.33332 16.6666C9.32575 16.6739 9.31821 16.6813 9.31072 16.6886C9.04204 16.9501 8.81975 17.1666 8.33332 17.1666L8.6736 12.0686Z"/>
    </symbol>
    <symbol id="fb-icon" width="11" height="22" viewBox="0 0 11 22">
        <path fill-rule="evenodd" clip-rule="evenodd" d="M7.08464 21.7596V10.8785H10.0883L10.4863 7.12884H7.08464L7.08974 5.25209C7.08974 4.27412 7.18266 3.7501 8.58731 3.7501H10.4651V0H7.461C3.85262 0 2.58257 1.81899 2.58257 4.87797V7.12926H0.333344V10.8789H2.58257V21.7596H7.08464Z"/>
    </symbol>
    <symbol id="in-icon" width="22" height="22" viewBox="0 0 22 22">
        <path fill-rule="evenodd" clip-rule="evenodd" d="M6.60274 0.397758C7.74053 0.34598 8.10409 0.333313 11.001 0.333313H10.9977C13.8955 0.333313 14.2577 0.34598 15.3955 0.397758C16.5311 0.449759 17.3066 0.629538 17.9866 0.893319C18.6889 1.16554 19.2822 1.52999 19.8755 2.12333C20.4689 2.71623 20.8333 3.31134 21.1067 4.01291C21.3689 4.69114 21.5489 5.46625 21.6022 6.60182C21.6533 7.73961 21.6667 8.10317 21.6667 11.0001C21.6667 13.897 21.6533 14.2597 21.6022 15.3975C21.5489 16.5326 21.3689 17.3079 21.1067 17.9864C20.8333 18.6877 20.4689 19.2828 19.8755 19.8757C19.2829 20.4691 18.6886 20.8344 17.9873 21.1069C17.3086 21.3706 16.5326 21.5504 15.3971 21.6024C14.2593 21.6542 13.8968 21.6669 10.9997 21.6669C8.10298 21.6669 7.73964 21.6542 6.60185 21.6024C5.46651 21.5504 4.69117 21.3706 4.01249 21.1069C3.31137 20.8344 2.71626 20.4691 2.12358 19.8757C1.53047 19.2828 1.16602 18.6877 0.893349 17.9862C0.629791 17.3079 0.450011 16.5328 0.397789 15.3972C0.346232 14.2595 0.333344 13.897 0.333344 11.0001C0.333344 8.10317 0.346677 7.73939 0.397566 6.6016C0.448678 5.46648 0.62868 4.69114 0.893127 4.01268C1.16646 3.31134 1.53091 2.71623 2.12425 2.12333C2.71715 1.53021 3.31226 1.16577 4.01383 0.893319C4.69206 0.629538 5.46717 0.449759 6.60274 0.397758ZM10.6455 2.25547C10.4298 2.25538 10.23 2.25529 10.0442 2.25558V2.25291C8.05614 2.25513 7.6748 2.26847 6.69079 2.31291C5.65078 2.36069 5.08611 2.53402 4.7101 2.68069C4.21232 2.87447 3.85676 3.10559 3.48342 3.47892C3.11009 3.85226 2.87853 4.20782 2.68519 4.7056C2.53919 5.08161 2.36541 5.64606 2.31786 6.68607C2.26674 7.81052 2.25652 8.14653 2.25652 10.995C2.25652 13.8435 2.26674 14.1813 2.31786 15.3057C2.36519 16.3457 2.53919 16.9102 2.68519 17.2857C2.87897 17.7837 3.11009 18.1384 3.48342 18.5117C3.85676 18.8851 4.21232 19.1162 4.7101 19.3095C5.08633 19.4555 5.65078 19.6293 6.69079 19.6773C7.81525 19.7284 8.1528 19.7395 11.0011 19.7395C13.8491 19.7395 14.1869 19.7284 15.3113 19.6773C16.3513 19.6298 16.9162 19.4564 17.2918 19.3098C17.7898 19.1164 18.1442 18.8853 18.5176 18.512C18.8909 18.1389 19.1225 17.7844 19.3158 17.2866C19.4618 16.9111 19.6356 16.3466 19.6831 15.3066C19.7343 14.1821 19.7454 13.8444 19.7454 10.9977C19.7454 8.15097 19.7343 7.81319 19.6831 6.68873C19.6358 5.64872 19.4618 5.08427 19.3158 4.70871C19.122 4.21093 18.8909 3.85537 18.5176 3.48203C18.1445 3.1087 17.7896 2.87758 17.2918 2.68425C16.9158 2.53825 16.3513 2.36447 15.3113 2.31691C14.1866 2.2658 13.8491 2.25558 11.0011 2.25558L10.6455 2.25547ZM5.52328 11C5.52328 7.97481 7.97598 5.52212 11.0011 5.52212H11.0009C14.026 5.52212 16.4781 7.97481 16.4781 11C16.4781 14.0251 14.0263 16.4767 11.0011 16.4767C7.97598 16.4767 5.52328 14.0251 5.52328 11ZM14.5567 11.0002C14.5567 9.03644 12.9647 7.44464 11.0011 7.44464C9.03728 7.44464 7.44549 9.03644 7.44549 11.0002C7.44549 12.9638 9.03728 14.5558 11.0011 14.5558C12.9647 14.5558 14.5567 12.9638 14.5567 11.0002ZM15.4149 5.30636C15.4149 4.59946 15.9882 4.02679 16.6949 4.02679V4.02635C17.4016 4.02635 17.9749 4.59969 17.9749 5.30636C17.9749 6.01303 17.4016 6.58637 16.6949 6.58637C15.9882 6.58637 15.4149 6.01303 15.4149 5.30636Z"/>
    </symbol>
    <symbol id="tel-icon" width="16" height="22" viewBox="0 0 16 22" fill="none">
        <path d="M13 1H3C1.89543 1 1 1.89543 1 3V19C1 20.1046 1.89543 21 3 21H13C14.1046 21 15 20.1046 15 19V3C15 1.89543 14.1046 1 13 1Z" stroke="currentColor" stroke-width="1.5" stroke-linecap="round" stroke-linejoin="round"/>
        <path d="M8 17H8.01" stroke="currentColor" stroke-width="1.5" stroke-linecap="round" stroke-linejoin="round"/>
    </symbol>
    <symbol id="shopping-cart-icon" width="30" height="31" viewBox="0 0 30 31">
        <path fill-rule="evenodd" clip-rule="evenodd" d="M11.25 26.4375C11.0774 26.4375 10.9375 26.5774 10.9375 26.75C10.9375 26.9226 11.0774 27.0625 11.25 27.0625C11.4226 27.0625 11.5625 26.9226 11.5625 26.75C11.5625 26.5774 11.4226 26.4375 11.25 26.4375ZM9.0625 26.75C9.0625 25.5419 10.0419 24.5625 11.25 24.5625C12.4581 24.5625 13.4375 25.5419 13.4375 26.75C13.4375 27.9581 12.4581 28.9375 11.25 28.9375C10.0419 28.9375 9.0625 27.9581 9.0625 26.75Z"/>
        <path fill-rule="evenodd" clip-rule="evenodd" d="M25 26.4375C24.8274 26.4375 24.6875 26.5774 24.6875 26.75C24.6875 26.9226 24.8274 27.0625 25 27.0625C25.1726 27.0625 25.3125 26.9226 25.3125 26.75C25.3125 26.5774 25.1726 26.4375 25 26.4375ZM22.8125 26.75C22.8125 25.5419 23.7919 24.5625 25 24.5625C26.2081 24.5625 27.1875 25.5419 27.1875 26.75C27.1875 27.9581 26.2081 28.9375 25 28.9375C23.7919 28.9375 22.8125 27.9581 22.8125 26.75Z"/>
        <path fill-rule="evenodd" clip-rule="evenodd" d="M0.3125 1.75C0.3125 1.23223 0.732233 0.8125 1.25 0.8125H6.25C6.69684 0.8125 7.08158 1.12786 7.16926 1.56601L8.26939 7.0625H28.75C29.0294 7.0625 29.2943 7.18713 29.4724 7.4024C29.6505 7.61768 29.7233 7.90116 29.6709 8.17563L27.6696 18.6701C27.5124 19.4615 27.0819 20.1723 26.4535 20.6781C25.8275 21.182 25.0449 21.4506 24.2418 21.4375H12.1083C11.3051 21.4506 10.5225 21.182 9.89656 20.6781C9.26841 20.1725 8.83804 19.4621 8.68069 18.6713L6.59069 8.2291C6.5834 8.20006 6.57746 8.17049 6.57295 8.14044L5.48155 2.6875H1.25C0.732233 2.6875 0.3125 2.26776 0.3125 1.75ZM8.64466 8.9375L10.5195 18.3049C10.591 18.6645 10.7867 18.9876 11.0723 19.2176C11.358 19.4475 11.7154 19.5698 12.082 19.5626L12.1 19.5625H24.25L24.268 19.5626C24.6346 19.5698 24.992 19.4475 25.2778 19.2176C25.5625 18.9883 25.7579 18.6664 25.8299 18.3079L25.8305 18.3049L27.6169 8.9375H8.64466Z"/>
    </symbol>
    <symbol id="call-icon" width="32" height="32" viewBox="0 0 32 32" fill="none">
        <path d="M19.1372 3.33301C24.0719 3.88101 27.9705 7.77434 28.5239 12.709" stroke="currentColor" stroke-width="1.5" stroke-linecap="round" stroke-linejoin="round"/>
        <path d="M19.1372 8.05664C21.4985 8.51531 23.3439 10.362 23.8039 12.7233" stroke="currentColor" stroke-width="1.5" stroke-linecap="round" stroke-linejoin="round"/>
        <path fill-rule="evenodd" clip-rule="evenodd" d="M14.7085 16.6295C20.0272 21.9468 21.2338 15.7953 24.6202 19.1794C27.8849 22.4433 29.7628 23.0973 25.6249 27.2326C25.1068 27.649 21.8149 32.6587 10.2458 21.0926C-1.3247 9.52501 3.68193 6.2296 4.09843 5.71161C8.24486 1.5648 8.88893 3.45218 12.1537 6.71611C15.5387 10.1017 9.38988 11.3122 14.7085 16.6295Z" stroke="currentColor" stroke-width="1.5" stroke-linecap="round" stroke-linejoin="round"/>
    </symbol>
    <symbol id="location-icon" width="20" height="24" viewBox="0 0 20 24" fill="none">
        <path fill-rule="evenodd" clip-rule="evenodd" d="M10 1.75C7.81196 1.75 5.71354 2.61919 4.16637 4.16637C2.61919 5.71354 1.75 7.81196 1.75 10C1.75 13.1985 3.8243 16.2657 6.04446 18.6092C7.13921 19.7648 8.2365 20.7099 9.06095 21.3664C9.44324 21.6708 9.76556 21.9122 10 22.0825C10.2344 21.9122 10.5568 21.6708 10.9391 21.3664C11.7635 20.7099 12.8608 19.7648 13.9555 18.6092C16.1757 16.2657 18.25 13.1985 18.25 10C18.25 7.81196 17.3808 5.71354 15.8336 4.16637C14.2865 2.61919 12.188 1.75 10 1.75ZM10 23C9.58397 23.624 9.58354 23.6238 9.58354 23.6238L9.58102 23.6221L9.5748 23.6179L9.55278 23.603C9.53392 23.5902 9.50678 23.5716 9.4719 23.5475C9.40215 23.4992 9.30143 23.4284 9.17416 23.3365C8.91971 23.1528 8.55868 22.8839 8.12655 22.5398C7.2635 21.8526 6.11079 20.8602 4.95554 19.6408C2.6757 17.2343 0.25 13.8015 0.25 10C0.25 7.41414 1.27723 4.93419 3.10571 3.10571C4.93419 1.27723 7.41414 0.25 10 0.25C12.5859 0.25 15.0658 1.27723 16.8943 3.10571C18.7228 4.93419 19.75 7.41414 19.75 10C19.75 13.8015 17.3243 17.2343 15.0445 19.6408C13.8892 20.8602 12.7365 21.8526 11.8734 22.5398C11.4413 22.8839 11.0803 23.1528 10.8258 23.3365C10.6986 23.4284 10.5979 23.4992 10.5281 23.5475C10.4932 23.5716 10.4661 23.5902 10.4472 23.603L10.4252 23.6179L10.419 23.6221L10.4171 23.6233C10.4171 23.6233 10.416 23.624 10 23ZM10 23L10.416 23.624C10.1641 23.792 9.83547 23.7917 9.58354 23.6238L10 23Z" fill="currentColor"/>
        <path fill-rule="evenodd" clip-rule="evenodd" d="M10 7.75C8.75736 7.75 7.75 8.75736 7.75 10C7.75 11.2426 8.75736 12.25 10 12.25C11.2426 12.25 12.25 11.2426 12.25 10C12.25 8.75736 11.2426 7.75 10 7.75ZM6.25 10C6.25 7.92893 7.92893 6.25 10 6.25C12.0711 6.25 13.75 7.92893 13.75 10C13.75 12.0711 12.0711 13.75 10 13.75C7.92893 13.75 6.25 12.0711 6.25 10Z" fill="currentColor"/>
    </symbol>
    <symbol id="calendar-icon" width="20" height="22" viewBox="0 0 20 22" fill="none">
        <path fill-rule="evenodd" clip-rule="evenodd" d="M3 3.75C2.30964 3.75 1.75 4.30964 1.75 5V19C1.75 19.6904 2.30964 20.25 3 20.25H17C17.6904 20.25 18.25 19.6904 18.25 19V5C18.25 4.30964 17.6904 3.75 17 3.75H3ZM0.25 5C0.25 3.48122 1.48122 2.25 3 2.25H17C18.5188 2.25 19.75 3.48122 19.75 5V19C19.75 20.5188 18.5188 21.75 17 21.75H3C1.48122 21.75 0.25 20.5188 0.25 19V5Z" fill="currentColor"/>
        <path fill-rule="evenodd" clip-rule="evenodd" d="M14 0.25C14.4142 0.25 14.75 0.585786 14.75 1V5C14.75 5.41421 14.4142 5.75 14 5.75C13.5858 5.75 13.25 5.41421 13.25 5V1C13.25 0.585786 13.5858 0.25 14 0.25Z" fill="currentColor"/>
        <path fill-rule="evenodd" clip-rule="evenodd" d="M6 0.25C6.41421 0.25 6.75 0.585786 6.75 1V5C6.75 5.41421 6.41421 5.75 6 5.75C5.58579 5.75 5.25 5.41421 5.25 5V1C5.25 0.585786 5.58579 0.25 6 0.25Z" fill="currentColor"/>
        <path fill-rule="evenodd" clip-rule="evenodd" d="M0.25 9C0.25 8.58579 0.585786 8.25 1 8.25H19C19.4142 8.25 19.75 8.58579 19.75 9C19.75 9.41421 19.4142 9.75 19 9.75H1C0.585786 9.75 0.25 9.41421 0.25 9Z" fill="currentColor"/>
    </symbol>
</svg>
